# xmcd
#
# Track frame offsets:
#	150
#	16755
#	39474
#	60238
#	80240
#	106062
#	123830
#	144160
#	159059
#	184111
#	207070
#	232739
#	252476
#	279591
#	298095
#
# Disc length: 4268 seconds
# Revision: 0
# Processed by: cddbd v1.5.2PL0 Copyright (c) Steve Scherf et al.
# Submitted via: dBpowerAMP V12.0
#
DISCID=bc10aa0f
DTITLE=Guy King - Truth
DYEAR=2016
DGENRE=Blues
TTITLE0=The Same Thing That Can Make You Laugh (Can Make You Cry)
TTITLE1=Truth
TTITLE2=My Happiness
TTITLE3=It's About The Dollar Bill
TTITLE4=A Day In A Life With The Blues
TTITLE5=Cookin' In Style
TTITLE6=See Saw
TTITLE7=Hey Now
TTITLE8=I Gotta Right To Sing The Blues
TTITLE9=There Must Be A Better World Somewhere
TTITLE10=King Thing
TTITLE11=Bad Case Of Love
TTITLE12=Something's Wrong
TTITLE13=If The Washing Don't Get You (The Rinsing Will)
TTITLE14=One Hundred Ways
EXTD=
EXTT0=
EXTT1=
EXTT2=
EXTT3=
EXTT4=
EXTT5=
EXTT6=
EXTT7=
EXTT8=
EXTT9=
EXTT10=
EXTT11=
EXTT12=
EXTT13=
EXTT14=
PLAYORDER=
